<?xml version="1.0" standalone="no"?>
<!DOCTYPE svg PUBLIC "-//W3C//DTD SVG 20010904//EN"
 "http://www.w3.org/TR/2001/REC-SVG-20010904/DTD/svg10.dtd">
<svg version="1.0" xmlns="http://www.w3.org/2000/svg"
 width="256.000000pt" height="256.000000pt" viewBox="0 0 256.000000 256.000000"
 preserveAspectRatio="xMidYMid meet">

<g transform="translate(0.000000,256.000000) scale(0.100000,-0.100000)"
fill="#ffffff" stroke="none">
<path d="M1100 2545 c-191 -31 -387 -109 -546 -215 -108 -73 -278 -244 -348
-352 -147 -227 -213 -470 -203 -748 13 -334 133 -607 377 -850 236 -237 510
-361 830 -377 278 -14 542 56 766 202 110 71 281 240 354 349 239 357 293 795
148 1183 -64 169 -160 313 -300 452 -183 180 -376 287 -617 342 -115 26 -345
34 -461 14z m335 -145 c256 -37 475 -148 648 -330 204 -214 310 -463 324 -760
19 -420 -215 -823 -598 -1029 -548 -296 -1268 -61 -1544 502 -214 437 -127
947 219 1292 176 175 402 293 621 324 85 12 247 12 330 1z"/>
<path d="M1155 2254 c-226 -36 -411 -129 -566 -283 -211 -212 -313 -493 -281
-780 48 -428 292 -725 697 -848 84 -25 102 -27 275 -27 172 0 191 2 275 27
116 35 252 102 338 168 234 177 385 524 364 834 -30 423 -331 785 -738 885
-82 21 -296 34 -364 24z m283 -165 c153 -24 306 -101 420 -212 112 -109 181
-228 224 -389 29 -110 31 -310 4 -408 -84 -305 -301 -522 -606 -606 -100 -28
-310 -26 -414 4 -144 41 -266 112 -371 216 -102 101 -175 227 -217 372 -31
110 -31 292 0 416 108 433 498 680 960 607z"/>
<path d="M1224 1946 c-14 -11 -20 -30 -24 -77 l-5 -62 -46 -11 c-190 -49 -281
-234 -193 -396 36 -67 82 -106 171 -147 l73 -34 0 -154 c0 -144 -1 -155 -19
-155 -48 0 -131 88 -131 140 0 43 -35 80 -76 80 -46 0 -74 -29 -74 -79 0 -124
107 -251 240 -284 l55 -14 5 -62 c6 -71 23 -91 76 -91 48 0 74 38 74 106 0 49
2 54 23 54 32 0 137 52 180 89 51 45 87 123 87 185 -2 129 -79 222 -232 278
l-58 21 0 159 0 160 28 -6 c60 -15 111 -71 119 -134 7 -53 34 -82 78 -82 51 0
79 40 71 103 -17 128 -107 227 -236 260 l-55 14 -5 56 c-3 34 -12 63 -24 76
-22 25 -73 28 -102 7z m-24 -426 c0 -145 -1 -147 -63 -105 -89 61 -87 173 4
218 59 29 59 29 59 -113z m228 -382 c35 -21 62 -64 62 -98 0 -50 -51 -105
-117 -125 l-23 -6 0 131 0 131 23 -6 c12 -4 37 -16 55 -27z"/>
</g>
</svg>
