<?xml version="1.0" encoding="utf-8"?>
<!-- Generator: Adobe Illustrator 24.0.2, SVG Export Plug-In . SVG Version: 6.00 Build 0)  -->
<svg version="1.1" id="Camada_1" xmlns="http://www.w3.org/2000/svg" xmlns:xlink="http://www.w3.org/1999/xlink" x="0px" y="0px"
	 viewBox="0 0 345 75" style="enable-background:new 0 0 345 75;" xml:space="preserve">
<style type="text/css">
	.st0{fill-rule:evenodd;clip-rule:evenodd;fill:#7D1015;}
</style>
<g>
	<path class="st0" d="M53.41,72l17.74-0.01l0-41.22c2.07,1.46,6.96,8.24,8.59,10.42l16.19,20.88c9.69,12.64,4.67,9.96,25.24,9.96
		l0.1-68.05l-17.41,0.01l-0.16,41.39L73.51,7.02c-2.74-3.73-2.3-3.12-8.07-3.05c-3.97,0.05-7.93-0.04-11.9,0.05L53.41,72z"/>
	<path class="st0" d="M126.61,71.95l18.84,0.06l4.54-11.83l24.38,0.07l4.37,11.68l18.62,0.08L172.01,3.96l-19.24,0.01L126.61,71.95
		L126.61,71.95z M154.95,46.51l7.1-21.4c1.67,2.3,6.81,18.08,7.23,21.6L154.95,46.51z"/>
	<path class="st0" d="M203.3,72.01l17.59-0.03l0.03-22.31c10.19-0.06,21,0.33,27.22-5.29c5.82-5.26,8.28-15.35,5.66-25.31
		C248.9,0.39,223.05,4.3,203.42,4.37L203.3,72.01L203.3,72.01z M220.71,35.07l0-16.93c8.05,0.01,15.37-0.73,15.63,8.23
		C236.61,36.14,229.2,35.09,220.71,35.07z"/>
	<polygon class="st0" points="4.01,71.9 42.63,72 42.62,57.19 21.58,57.01 21.57,45.27 41.29,45.24 41.63,30.33 21.7,30.29
		21.56,18.93 42.56,18.91 42.64,4.18 4.07,3.98 	"/>
	<path class="st0" d="M340.1,70.78l0-20.72c-4.38,2.75-9.93,9.33-21.48,5.77c-7.11-2.19-12.15-8.79-11.95-18.22
		c0.41-19.46,23.55-23.69,33.25-11.4l0.18-20.36c-8.73-5.89-25.24-4.36-35.89,2.48c-27.06,17.38-18.48,61.44,16.04,65.15
		C329.44,74.47,332.61,72.32,340.1,70.78z"/>
	<polygon class="st0" points="262.59,72.01 280.03,72.02 280.12,3.97 262.73,3.98 	"/>
</g>
</svg>
