<?xml version="1.0" encoding="utf-8"?>
<!-- Generator: Adobe Illustrator 24.0.2, SVG Export Plug-In . SVG Version: 6.00 Build 0)  -->
<svg version="1.1" id="Layer_1" xmlns="http://www.w3.org/2000/svg" xmlns:xlink="http://www.w3.org/1999/xlink" x="0px" y="0px"
	 viewBox="0 0 460 460" style="enable-background:new 0 0 460 460;" xml:space="preserve">
<style type="text/css">
	.st0{fill:#F1F4F8;}
	.st1{fill:#E6EBED;}
	.st2{fill:#FFFFFF;}
	.st3{fill:#DBDBDB;}
	.st4{fill:#C9C9C9;}
</style>
<g>
	<circle class="st0" cx="230.5" cy="230.3" r="225.4"/>
	<g>
		<polygon class="st1" points="207.1,214.7 230.5,409.8 386.6,320.1 386.6,140.6 		"/>
		<polygon class="st2" points="368.7,273.8 368.7,309.7 311.3,342.7 311.3,306.8 340.3,279.3 		"/>
		<polygon class="st3" points="368.7,255.8 368.7,273.8 311.3,306.8 311.3,288.8 		"/>
		<polygon class="st3" points="230.5,206.9 230.5,409.8 74.4,320.1 74.4,140.6 		"/>
		<polygon class="st4" points="74.4,140.6 129,171.9 232.4,141.6 285.1,82.2 230.5,50.8 		"/>
		<polygon class="st4" points="176,198.9 230.5,230.3 386.6,140.6 332.1,109.2 227.9,140 		"/>
		<polygon class="st2" points="176,277 129,250 129,171.9 174.3,175.5 176,198.9 		"/>
		<polygon class="st3" points="129,171.9 285.1,82.2 332.1,109.2 176,198.9 		"/>
	</g>
</g>
</svg>
